<?xml version="1.0" encoding="UTF-8" standalone="no"?>
<!-- Created with Inkscape (http://www.inkscape.org/) -->

<svg
   width="137.58333mm"
   height="137.58333mm"
   viewBox="0 0 137.58333 137.58333"
   version="1.1"
   id="svg1"
   xml:space="preserve"
   inkscape:version="1.3.2 (091e20ef0f, 2023-11-25, custom)"
   sodipodi:docname="logo.svg"
   xmlns:inkscape="http://www.inkscape.org/namespaces/inkscape"
   xmlns:sodipodi="http://sodipodi.sourceforge.net/DTD/sodipodi-0.dtd"
   xmlns="http://www.w3.org/2000/svg"
   xmlns:svg="http://www.w3.org/2000/svg"><sodipodi:namedview
     id="namedview1"
     pagecolor="#ffffff"
     bordercolor="#000000"
     borderopacity="0.25"
     inkscape:showpageshadow="2"
     inkscape:pageopacity="0.0"
     inkscape:pagecheckerboard="0"
     inkscape:deskcolor="#d1d1d1"
     inkscape:document-units="mm"
     inkscape:zoom="0.70710678"
     inkscape:cx="-76.367532"
     inkscape:cy="306.88434"
     inkscape:window-width="1920"
     inkscape:window-height="1052"
     inkscape:window-x="0"
     inkscape:window-y="0"
     inkscape:window-maximized="1"
     inkscape:current-layer="layer2" /><defs
     id="defs1" /><g
     inkscape:groupmode="layer"
     id="layer2"
     inkscape:label="Layer 2"
     style="display:inline" /><g
     inkscape:label="Layer 1"
     inkscape:groupmode="layer"
     id="layer1"
     transform="translate(-36.388134,-77.443428)"
     style="display:inline;fill:#0b4050;fill-opacity:1"><path
       style="fill:#0e3f50;fill-opacity:1"
       d="m 103.38002,182.20507 c -2.32833,-0.50069 -11.734257,-2.57644 -20.902067,-4.61278 -24.319569,-5.40182 -28.160939,-6.24953 -32.411458,-7.15255 -2.110053,-0.44828 -4.002745,-0.90471 -4.205984,-1.0143 l -0.369525,-0.19925 1.824734,-0.3154 c 5.553579,-0.95995 24.334025,-6.18619 33.971607,-9.45365 13.188426,-4.47132 19.100853,-6.99562 34.171593,-14.58946 l 10.22681,-5.15309 2.87006,1.80321 c 1.57854,0.99176 4.41788,2.74929 6.30965,3.90563 1.89177,1.15633 4.03489,2.4835 4.7625,2.94925 0.7276,0.46575 2.57307,1.60099 4.10104,2.52276 1.52797,0.92177 4.62359,2.80747 6.87917,4.19044 2.25557,1.38296 4.75588,2.89483 5.55625,3.3597 0.80036,0.46487 3.06255,1.83573 5.02708,3.04634 1.96453,1.21062 5.00062,3.03573 6.74687,4.05581 1.74625,1.02007 3.22461,1.89258 3.28525,1.9389 0.28638,0.21881 -0.43237,0.43786 -3.32833,1.01436 -2.79492,0.55638 -8.57524,1.89242 -20.46212,4.72952 -2.11006,0.50362 -7.94412,1.94494 -12.96459,3.20295 -5.02046,1.258 -10.08062,2.51097 -11.24479,2.78436 -2.32533,0.54609 -5.71211,1.38915 -11.37708,2.83206 -2.03729,0.51892 -3.82323,0.97094 -3.96875,1.00451 -0.14552,0.0336 -2.16958,-0.34863 -4.49792,-0.84932 z"
       id="path2"
       sodipodi:nodetypes="sssscssscsssssssscssssscs" /><path
       d="m 91.899828,135.06829 -0.72713,-0.43883 -4.7e-4,-0.3088 c -2.6e-4,-0.16983 0.23765,-0.86431 0.52869,-1.54329 0.29105,-0.67897 0.52917,-1.33639 0.52917,-1.46093 v -0.22643 l -1.19373,-0.17901 -1.19372,-0.17901 -0.65836,-0.51787 -0.60889,-0.51297 c 0,0 -0.16484,-0.27466 -0.17369,-0.71697 0.0121,-0.44047 0.12422,-0.755 0.12422,-0.755 0,0 0.29288,-0.45104 0.42681,-0.52007 0.0392,-0.0851 0.52548,-0.38465 0.6262,-0.43289 0.0929,0.0263 1.87401,0.15711 1.87401,0.15711 l 1.874,0.15711 0.39083,-0.93538 0.39082,-0.93538 -0.28656,-0.34529 c -0.43826,-0.52807 -1.41136,-0.84361 -5.29611,-1.71736 -1.96453,-0.44186 -4.56599,-1.12911 -5.78103,-1.52723 l -2.209154,-0.72385 -1.031989,-0.88334 -1.03199,-0.88334 v -0.46755 -0.46754 l 0.463505,-0.41947 c 0.254928,-0.2307 0.760943,-0.55508 1.124479,-0.72083 0.363536,-0.16575 1.077693,-0.53104 1.587016,-0.81175 l 0.926043,-0.51039 1.81884,-4.1e-4 1.81884,-4.1e-4 3.20824,0.6498 c 1.76454,0.3574 4.69623,1.00306 6.51487,1.43481 l 3.306639,0.785 0.47398,-0.50877 0.473983,-0.50876 0.58501,0.002 c 0.32175,0.001 1.33914,0.12437 2.26087,0.27394 l 1.67586,0.27194 7.71685,-4.03815 c 4.24426,-2.22098 8.37169,-4.35846 9.17205,-4.74995 l 1.45521,-0.71181 1.12448,-0.15732 1.12448,-0.15732 v 0.52399 0.52399 l -0.34077,-0.13076 -0.34076,-0.13077 -2.17648,1.59428 c -1.19707,0.87685 -2.30846,1.59427 -2.46976,1.59427 h -0.29328 l 0.31469,0.37918 0.31469,0.37917 -0.69246,0.45371 -0.69245,0.45372 0.13728,0.35774 0.13727,0.35773 h -0.65666 -0.65666 l -1.9868,1.38123 -1.9868,1.38123 0.12992,0.33857 0.12992,0.33856 h -0.67081 -0.67081 l -0.97453,0.7276 c -0.53599,0.40018 -1.01493,0.81903 -1.0643,0.93077 -0.0494,0.11174 -0.27389,0.38728 -0.49893,0.61232 l -0.40916,0.40916 0.23434,0.21834 c 0.12889,0.12008 1.60357,0.53314 3.27706,0.9179 1.67349,0.38477 3.24064,0.75982 3.48256,0.83347 l 0.43985,0.13389 1.65721,-2.66254 c 0.91146,-1.46439 1.78509,-2.76127 1.94139,-2.88195 l 0.2842,-0.21942 0.83134,0.22581 0.83135,0.22581 0.0959,3.02172 c 0.0528,1.66195 0.16906,3.09486 0.25845,3.18425 l 0.16252,0.16252 2.98425,-1.46462 2.98426,-1.46462 h 0.6223 0.62231 l -0.01,0.19844 c -0.005,0.10914 -1.26644,1.07217 -2.80227,2.14006 l -2.79242,1.94161 0.54113,0.57602 0.54114,0.57601 -0.18626,0.29375 -0.18626,0.29374 -1.98293,0.3323 -1.98293,0.33229 -1.37834,1.17755 -1.37833,1.17755 -0.47519,-0.0973 -0.47519,-0.0972 0.0693,-0.91669 0.0694,-0.91668 -3.64122,-0.0186 -3.64122,-0.0186 -1.7198,-0.40918 -1.71979,-0.40918 -2.51354,0.0888 -2.51354,0.0888 -1.00317,0.45035 -1.00319,0.45035 0.1467,0.38227 0.14669,0.38226 -0.794468,-0.1166 -0.794455,-0.1166 -0.56534,0.60178 -0.565339,0.60177 0.157459,0.41034 0.15746,0.41034 h -0.474739 -0.47474 l -0.57529,0.61236 -0.57528,0.61237 v 0.46591 0.4659 l -0.78075,-0.0819 -0.78075,-0.0819 -0.80675,0.77292 -0.80675,0.77291 v 0.34738 c 0,0.43694 -0.21199,0.41057 -1.12401,-0.13984 z"
       style="fill:#061f28;fill-opacity:1"
       id="path1" /><path
       d="m 39.639531,167.60249 c 0.138244,-0.11766 1.441979,-0.91368 2.897187,-1.76895 1.455208,-0.85526 3.479271,-2.04778 4.497917,-2.65004 1.018645,-0.60226 2.804583,-1.61339 3.968749,-2.24695 1.164167,-0.63356 2.176198,-1.22001 2.248959,-1.30322 0.07276,-0.0832 1.02526,-0.61698 2.116666,-1.18616 1.091406,-0.56919 2.28203,-1.2367 2.645833,-1.48337 0.614557,-0.41669 5.641742,-3.25861 8.995833,-5.08544 0.800364,-0.43593 1.771244,-1.01679 2.15751,-1.29081 0.386266,-0.27401 0.779492,-0.49821 0.873835,-0.49821 0.09434,0 1.385651,-0.70025 2.869573,-1.55611 1.483922,-0.85586 3.12867,-1.79742 3.654997,-2.09235 0.526326,-0.29494 1.758885,-1.02344 2.73902,-1.6189 l 1.782064,-1.08264 h 0.449208 c 0.247065,0 0.562318,0.1036 0.700565,0.23021 0.13824,0.12662 1.26338,0.74269 2.50031,1.36904 1.23693,0.62636 2.41515,1.2669 2.61826,1.42344 0.42347,0.32634 4.65714,2.65934 7.10518,3.91536 0.909495,0.46665 1.653635,0.93636 1.653635,1.04382 v 0.19537 l -2.447385,0.78722 c -1.34607,0.43298 -5.24537,1.75444 -8.66511,2.93659 -11.299977,3.90622 -18.036992,6.0115 -25.267704,7.89599 -8.708349,2.2696 -9.170498,2.3849 -13.397333,3.34266 l -4.136918,0.93738 h -1.406103 -1.406102 z"
       style="fill:#37b4ac;fill-opacity:1"
       id="path1-6" /></g></svg>
